<svg width="99" height="119" viewBox="0 0 99 119" fill="none" xmlns="http://www.w3.org/2000/svg">
<g filter="url(#filter0_ddi_2_2095)">
<path fill-rule="evenodd" clip-rule="evenodd" d="M85.0519 71.8844L85.0245 86.4452C82.9599 88.0472 80.9782 89.3272 79.1147 90.3507V77.7943H72.5209V93.1925C69.9733 93.9922 67.9339 94.2763 66.6111 94.3719V55.1131H59.8865V98.9917C55.1058 99.0797 50.7124 98.4636 46.8242 97.4954C37.8592 95.2622 29.7917 90.3206 23.9045 83.1986C17.0918 74.955 13 64.3778 13 52.8473C13 51.0266 13.1008 49.2285 13.2995 47.4606C14.5544 40.5952 20.6252 16.1864 47.7173 9.48184C49.0627 9.14739 50.4581 8.85815 51.9094 8.6168C52.6712 8.52119 53.4334 8.40552 54.1929 8.28231C56.6423 7.87743 59.0691 7.36186 61.5133 6.93937C64.2345 6.46909 66.9453 5.9234 69.7269 6.00892C70.2774 6.02398 70.8234 6.09946 71.2861 6.41881C71.9576 6.88655 72.6819 6.97459 73.474 6.87907C74.0773 6.80613 74.6937 6.79601 75.2998 6.81617C76.152 6.84126 76.5217 7.12042 76.6728 7.9428C76.8964 9.17503 76.5119 10.2413 75.6164 11.119C75.5962 11.1064 75.5761 11.0963 75.556 11.0838C75.5585 11.1014 75.5585 11.119 75.5585 11.1341C75.4582 11.5239 75.1715 11.7402 74.7566 12.0847C74.8798 11.549 75.0203 11.1743 75.2442 10.8625C75.1916 10.6412 75.6518 10.3067 75.1134 10.1936C74.7261 10.3947 74.3413 10.5984 73.9543 10.8021L73.9493 10.8097C74.0496 11.1139 73.8939 11.3302 73.7079 11.5364C73.4991 12.3211 72.9557 12.8416 72.2946 13.3522C72.4656 12.814 72.6467 12.3513 72.7548 11.8709C72.9155 11.1718 72.8252 11.0888 72.116 11.0963C71.2107 11.1089 70.3707 11.3931 69.576 11.788C68.5726 12.2909 67.5969 12.8517 66.508 13.2189C69.3092 13.2918 71.8168 14.265 74.2259 15.5602C75.1916 16.0782 76.1598 15.872 77.123 15.525C77.3342 15.447 77.5452 15.364 77.802 15.2659C77.2663 15.8519 76.5418 15.955 75.8729 16.1964C76.5748 16.5183 77.3267 16.4806 78.7526 16.0933C77.6436 16.7698 76.454 16.8704 75.2142 16.5283C74.1782 16.2442 73.2552 15.696 72.2893 15.2534C69.9935 14.2072 68.4871 13.8778 66.7393 14.0739C67.7375 15.0924 68.9071 15.8091 70.0136 16.6088C69.9885 16.6541 69.9658 16.6993 69.9379 16.7472C68.6782 16.3523 67.5039 15.8091 66.4901 14.9415C66.0425 14.5593 65.575 14.2022 64.9812 14.0664C64.823 14.0261 64.6366 13.9859 64.5537 14.1443C64.5061 14.2373 64.5562 14.4059 64.6118 14.5241C64.8982 15.1578 65.4113 15.608 65.9142 16.0606C67.0838 17.1093 68.4114 17.9191 69.7998 18.6358C70.7779 19.1413 71.0092 19.0608 71.6178 18.1328C71.7664 17.909 71.8869 17.6675 72.0254 17.4312C72.0707 17.4563 72.116 17.4815 72.161 17.5041C72.2417 17.7631 72.1437 18.002 72.0506 18.2284C71.9676 18.4321 71.824 18.6132 71.7765 18.8445C72.8526 18.3994 73.4788 17.567 73.9594 16.5736C74.0069 17.5796 73.5897 18.4295 72.9635 19.1589C72.4605 19.7448 71.7838 20.1371 71.0595 20.4364C70.3858 20.7155 69.7745 20.6828 69.1183 20.3031C66.8774 19.013 64.7222 17.577 62.4136 16.4052C58.9607 14.6473 55.4755 13.9934 52.005 14.4461C50.6696 14.6197 49.3343 14.9566 48.004 15.4546C42.9819 16.981 38.3697 19.3877 34.3712 22.4885C24.9079 29.8217 18.8598 41.0251 18.8598 53.5816C18.8598 73.4965 34.0668 90.0112 53.9766 93.0743V49.2034H72.5209V71.8844H85.0519Z" fill="#C35E33"/>
</g>
<defs>
<filter id="filter0_ddi_2_2095" x="0" y="0" width="98.0519" height="119" filterUnits="userSpaceOnUse" color-interpolation-filters="sRGB">
<feFlood flood-opacity="0" result="BackgroundImageFix"/>
<feColorMatrix in="SourceAlpha" type="matrix" values="0 0 0 0 0 0 0 0 0 0 0 0 0 0 0 0 0 0 127 0" result="hardAlpha"/>
<feOffset dy="7"/>
<feGaussianBlur stdDeviation="6.5"/>
<feColorMatrix type="matrix" values="0 0 0 0 0 0 0 0 0 0 0 0 0 0 0 0 0 0 0.3 0"/>
<feBlend mode="normal" in2="BackgroundImageFix" result="effect1_dropShadow_2_2095"/>
<feColorMatrix in="SourceAlpha" type="matrix" values="0 0 0 0 0 0 0 0 0 0 0 0 0 0 0 0 0 0 127 0" result="hardAlpha"/>
<feOffset dy="2"/>
<feGaussianBlur stdDeviation="2"/>
<feColorMatrix type="matrix" values="0 0 0 0 0 0 0 0 0 0 0 0 0 0 0 0 0 0 0.4 0"/>
<feBlend mode="normal" in2="effect1_dropShadow_2_2095" result="effect2_dropShadow_2_2095"/>
<feBlend mode="normal" in="SourceGraphic" in2="effect2_dropShadow_2_2095" result="shape"/>
<feColorMatrix in="SourceAlpha" type="matrix" values="0 0 0 0 0 0 0 0 0 0 0 0 0 0 0 0 0 0 127 0" result="hardAlpha"/>
<feOffset dy="-3"/>
<feComposite in2="hardAlpha" operator="arithmetic" k2="-1" k3="1"/>
<feColorMatrix type="matrix" values="0 0 0 0 0 0 0 0 0 0 0 0 0 0 0 0 0 0 0.2 0"/>
<feBlend mode="normal" in2="shape" result="effect3_innerShadow_2_2095"/>
</filter>
</defs>
</svg>
